<svg xmlns="http://www.w3.org/2000/svg" width="1200" height="630" viewBox="0 0 1200 630">
  <rect width="1200" height="630" fill="#f3f5f8"/>
  <circle cx="1030" cy="104" r="180" fill="#dbeafe"/>
  <circle cx="170" cy="540" r="150" fill="#eff6ff"/>
  <rect x="82" y="74" width="1036" height="482" rx="38" fill="#fff" stroke="#d7dee8"/>
  <rect x="136" y="132" width="118" height="118" rx="28" fill="#2563eb"/>
  <path d="M165 160h59a9 9 0 0 1 9 9v44a9 9 0 0 1-9 9h-41l-23 16v-69a9 9 0 0 1 9-9Z" fill="#fff"/>
  <path d="M181 181h32M181 197h24M181 213h36" stroke="#2563eb" stroke-width="6" stroke-linecap="round"/>
  <text x="136" y="330" font-family="PingFang SC, Microsoft YaHei, sans-serif" font-size="66" font-weight="800" fill="#101828">Wenjuan</text>
  <text x="136" y="390" font-family="PingFang SC, Microsoft YaHei, sans-serif" font-size="34" font-weight="600" fill="#2563eb">AI-first 问卷编辑器</text>
  <text x="136" y="452" font-family="PingFang SC, Microsoft YaHei, sans-serif" font-size="28" fill="#667085">自然语言生成 · 可视化编辑 · 在线发布 · 数据分析</text>
  <rect x="746" y="156" width="280" height="318" rx="26" fill="#f8fafc" stroke="#d7dee8"/>
  <rect x="782" y="204" width="208" height="18" rx="9" fill="#c7d2fe"/>
  <rect x="782" y="252" width="172" height="16" rx="8" fill="#bfdbfe"/>
  <rect x="782" y="286" width="196" height="16" rx="8" fill="#bfdbfe"/>
  <rect x="782" y="338" width="208" height="48" rx="14" fill="#2563eb"/>
  <text x="834" y="370" font-family="PingFang SC, Microsoft YaHei, sans-serif" font-size="18" font-weight="700" fill="#fff">生成问卷</text>
</svg>
